<svg id="moon" width="24" height="24" viewBox="0 0 24 24" fill="none"
    xmlns="http://www.w3.org/2000/svg">
    <path
        id="moon1"
        d="M12.0657 12.0299C9.28224 6.64213 11.4684 1.89946 12.6989 0C6.29567 0.226979 1.17072 5.4714 1.17072 11.9343C1.17072 12.1016 1.19461 12.2688 1.19461 12.4361C1.93528 12.1135 2.73568 11.9343 3.58386 11.9343C5.56695 11.9343 7.38278 12.9259 8.48184 14.5028C10.4769 15.0762 11.9463 16.9159 11.9463 19.1021C11.9463 20.9179 10.9069 22.4829 9.41365 23.2952C10.5844 23.6775 11.8387 23.8926 13.1289 23.8926C17.3101 23.8926 20.9896 21.7422 23.128 18.4928C20.3087 18.7676 14.7895 17.3341 12.0657 12.0299Z"
        fill="black" />
    <path
        id="moon2"
        d="M7.16777 16.7129H6.95274C6.45099 15.3271 5.1369 14.3236 3.58388 14.3236C1.6008 14.3236 0 15.9244 0 17.9075C0 19.8906 1.6008 21.4914 3.58388 21.4914C4.32455 21.4914 6.55851 21.4914 7.16777 21.4914C8.48186 21.4914 9.55702 20.4162 9.55702 19.1021C9.55702 17.788 8.48186 16.7129 7.16777 16.7129Z"
        fill="black" />
</svg>